<svg xmlns="http://www.w3.org/2000/svg" width="256" height="256" viewBox="0 0 256 256" role="img" aria-label="Easy Pass icon">
  <defs>
    <linearGradient id="bg" x1="36" y1="28" x2="220" y2="228" gradientUnits="userSpaceOnUse">
      <stop offset="0" stop-color="#153b63"/>
      <stop offset="0.48" stop-color="#126d63"/>
      <stop offset="1" stop-color="#19a06f"/>
    </linearGradient>
    <linearGradient id="card" x1="72" y1="50" x2="186" y2="196" gradientUnits="userSpaceOnUse">
      <stop offset="0" stop-color="#f8fffd"/>
      <stop offset="1" stop-color="#d8f2eb"/>
    </linearGradient>
    <linearGradient id="key" x1="88" y1="104" x2="179" y2="160" gradientUnits="userSpaceOnUse">
      <stop offset="0" stop-color="#fff7b2"/>
      <stop offset="1" stop-color="#f5b94f"/>
    </linearGradient>
    <filter id="shadow" x="-20%" y="-20%" width="140%" height="150%">
      <feDropShadow dx="0" dy="14" stdDeviation="14" flood-color="#08251f" flood-opacity="0.28"/>
    </filter>
    <filter id="soft" x="-20%" y="-20%" width="140%" height="140%">
      <feGaussianBlur stdDeviation="10"/>
    </filter>
  </defs>

  <rect width="256" height="256" rx="56" fill="url(#bg)"/>
  <circle cx="46" cy="44" r="68" fill="#45d5a1" opacity="0.22" filter="url(#soft)"/>
  <circle cx="220" cy="216" r="74" fill="#7ce7c0" opacity="0.16" filter="url(#soft)"/>

  <path d="M60 62c29-10 43-20 68-36 25 16 39 26 68 36v54c0 45-25 79-68 101-43-22-68-56-68-101V62Z" fill="#0d2c45" opacity="0.2"/>
  <path d="M68 57c27-9 39-18 60-32 21 14 33 23 60 32v57c0 42-22 72-60 92-38-20-60-50-60-92V57Z" fill="url(#card)" filter="url(#shadow)"/>
  <path d="M80 67c22-8 33-16 48-26 15 10 26 18 48 26v46c0 34-17 59-48 77-31-18-48-43-48-77V67Z" fill="#ffffff" opacity="0.24"/>

  <rect x="87" y="113" width="82" height="58" rx="18" fill="#0e4f49"/>
  <rect x="100" y="94" width="56" height="48" rx="24" fill="none" stroke="#0e4f49" stroke-width="16"/>
  <rect x="101" y="124" width="54" height="36" rx="13" fill="url(#key)"/>
  <circle cx="128" cy="141" r="7" fill="#0d2c45"/>
  <path d="M128 146v15" stroke="#0d2c45" stroke-width="6" stroke-linecap="round"/>

  <path d="M163 118h29" stroke="#f5c45f" stroke-width="12" stroke-linecap="round"/>
  <path d="M188 118v15m-16-15v11" stroke="#f5c45f" stroke-width="9" stroke-linecap="round"/>
  <circle cx="154" cy="118" r="13" fill="none" stroke="#f5c45f" stroke-width="10"/>

  <path d="M88 189c12 12 25 21 40 29 15-8 28-17 40-29" fill="none" stroke="#e9fff8" stroke-width="8" stroke-linecap="round" opacity="0.72"/>
</svg>
